<?xml version="1.0" encoding="iso-8859-1"?>
<svg fill="#000000" height="32px" width="32px" version="1.1" id="Layer_1" xmlns="http://www.w3.org/2000/svg" xmlns:xlink="http://www.w3.org/1999/xlink" 
	 viewBox="0 0 503.148 503.148" xml:space="preserve">
<g transform="translate(0 1)">
	<g>
		<g>
			<path d="M382.987,177.881h-63.147v-42.667c0-5.12-3.413-8.533-8.533-8.533h-34.133v-25.6h17.067c5.12,0,8.533-3.413,8.533-8.533
				v-51.2c0-5.12-3.413-8.533-8.533-8.533h-51.2c-5.12,0-8.533,3.413-8.533,8.533v51.2c0,5.12,3.413,8.533,8.533,8.533h17.067v25.6
				h-34.133c-5.12,0-8.533,3.413-8.533,8.533v42.667h-63.147c-35.84,0-64.853,29.013-64.853,64.853v11.947v170.667v11.947
				c0,35.84,29.013,64.853,64.853,64.853h228.693c35.84,0,64.853-29.013,64.853-64.853v-11.947V254.681v-11.947
				C447.841,206.895,418.827,177.881,382.987,177.881z M251.574,75.481h8.533c5.12,0,8.533-3.413,8.533-8.533
				s-3.413-8.533-8.533-8.533h-8.533v-8.533h34.133v34.133h-34.133V75.481z M430.774,288.815h-85.333
				c-5.12,0-8.533,3.413-8.533,8.533s3.413,8.533,8.533,8.533h85.333v25.6h-68.267c-5.12,0-8.533,3.413-8.533,8.533
				s3.413,8.533,8.533,8.533h68.267v25.6h-42.667c-5.12,0-8.533,3.413-8.533,8.533s3.413,8.533,8.533,8.533h42.667v25.6H294.241
				v-153.6h136.533V288.815z M234.507,143.748h68.267v34.133h-68.267V143.748z M106.507,263.215h59.733v153.6h-59.733V263.215z
				 M382.987,485.081H154.294c-26.453,0-47.787-21.333-47.787-47.787v-3.413h68.267c5.12,0,8.533-3.413,8.533-8.533V254.681
				c0-5.12-3.413-8.533-8.533-8.533h-68.267v-3.413c0-26.453,21.333-47.787,47.787-47.787h71.68h85.333h71.68
				c26.453,0,47.787,21.333,47.787,47.787v3.413H285.707c-5.12,0-8.533,3.413-8.533,8.533v170.667c0,5.12,3.413,8.533,8.533,8.533
				h145.067v3.413C430.774,463.748,409.441,485.081,382.987,485.081z"/>
			<path d="M166.241,75.481h8.533c5.12,0,8.533-3.413,8.533-8.533s-3.413-8.533-8.533-8.533h-8.533c-5.12,0-8.533,3.413-8.533,8.533
				S161.121,75.481,166.241,75.481z"/>
			<path d="M132.107,75.481h8.533c5.12,0,8.533-3.413,8.533-8.533s-3.413-8.533-8.533-8.533h-8.533c-5.12,0-8.533,3.413-8.533,8.533
				S126.987,75.481,132.107,75.481z"/>
			<path d="M97.974,75.481h8.533c5.12,0,8.533-3.413,8.533-8.533s-3.413-8.533-8.533-8.533h-8.533c-5.12,0-8.533,3.413-8.533,8.533
				S92.854,75.481,97.974,75.481z"/>
			<path d="M72.374,58.415h-8.533c-5.12,0-8.533,3.413-8.533,8.533s3.413,8.533,8.533,8.533h8.533c5.12,0,8.533-3.413,8.533-8.533
				S77.494,58.415,72.374,58.415z"/>
			<path d="M200.374,75.481h8.533c5.12,0,8.533-3.413,8.533-8.533s-3.413-8.533-8.533-8.533h-8.533c-5.12,0-8.533,3.413-8.533,8.533
				S195.254,75.481,200.374,75.481z"/>
			<path d="M166.241,36.228l7.68,2.56c0.853,0.853,1.707,0.853,2.56,0.853c3.413,0,6.827-2.56,8.533-5.973
				c0.853-5.12-1.707-9.387-5.12-11.093l-7.68-2.56c-5.12-1.707-9.387,0.853-11.093,5.12
				C159.414,30.255,161.974,34.521,166.241,36.228z"/>
			<path d="M132.961,25.135l8.533,2.56c0.853,0.853,1.707,0.853,2.56,0.853c3.413,0,6.827-2.56,7.68-5.12
				c1.707-5.12-0.853-9.387-5.12-11.093l-7.68-2.56c-5.12-1.707-9.387,0.853-11.093,5.12S128.694,23.428,132.961,25.135z"/>
			<path d="M103.947,15.748l5.12,0.853c0.853,0.853,1.707,0.853,2.56,0.853c3.413,0,6.827-1.707,7.68-5.12
				c1.707-5.12-0.853-9.387-5.12-11.093l-5.12-1.707c-4.267-1.707-8.533,0.853-10.24,5.12S99.681,14.041,103.947,15.748z"/>
			<path d="M198.667,46.468l7.68,2.56c0.853,0.853,1.707,0.853,2.56,0.853c3.413,0,6.827-1.707,7.68-5.12
				c1.707-5.12-0.853-9.387-5.12-11.093l-6.827-3.413c-5.12-1.707-9.387,0.853-11.093,5.12
				C191.841,40.495,194.401,44.761,198.667,46.468z"/>
			<path d="M206.347,84.015l-7.68,2.56c-4.267,1.707-6.827,6.827-5.12,11.093c0.853,3.413,4.267,5.973,7.68,5.973
				c0.853,0,1.707,0,3.413-0.853l7.68-2.56c4.267-1.707,6.827-6.827,5.12-11.093C215.734,84.868,210.614,82.308,206.347,84.015z"/>
			<path d="M173.921,95.108l-7.68,2.56c-4.267,1.707-6.827,6.827-5.12,11.093c0.853,3.413,4.267,5.973,7.68,5.973
				c0.853,0,1.707,0,3.413-0.853l7.68-2.56c4.267-1.707,6.827-6.827,5.12-11.093S178.187,93.401,173.921,95.108z"/>
			<path d="M109.067,116.441l-5.12,1.707c-4.267,1.707-6.827,6.827-5.12,11.093c0.853,3.413,4.267,5.973,7.68,5.973
				c0.853,0,1.707,0,3.413-0.853l5.12-1.707c4.267-1.707,6.827-6.827,5.12-11.093S113.334,114.735,109.067,116.441z"/>
			<path d="M141.494,106.201l-7.68,2.56c-4.267,1.707-6.827,6.827-5.12,11.093c0.853,3.413,4.267,5.973,7.68,5.973
				c0.853,0,1.707-0.853,3.413-0.853l7.68-2.56c4.267-1.707,6.827-6.827,5.12-11.093S145.761,104.495,141.494,106.201z"/>
		</g>
	</g>
</g>
</svg>