<?xml version="1.0" encoding="iso-8859-1"?>
<!-- Uploaded to: SVG Repo, www.svgrepo.com, Generator: SVG Repo Mixer Tools -->
<svg fill="#000000" height="32px" width="32px" version="1.1" id="Layer_1" xmlns="http://www.w3.org/2000/svg" xmlns:xlink="http://www.w3.org/1999/xlink" 
	 viewBox="0 0 512 512" xml:space="preserve">
<g>
	<g>
		<path d="M101.282,64.805c-12.966-3.547-13.608-4.183-17.178-17.001c-1.482-5.314-6.382-9.026-11.916-9.026
			c-5.534,0-10.434,3.711-11.917,9.028c-3.569,12.815-4.211,13.45-17.176,16.998c-5.356,1.466-9.097,6.354-9.097,11.887
			c0,5.53,3.74,10.416,9.097,11.886c12.964,3.547,13.606,4.183,17.177,17.002c1.483,5.314,6.382,9.026,11.916,9.026
			c5.534,0,10.433-3.711,11.917-9.029c3.57-12.817,4.212-13.452,17.183-17c5.348-1.467,9.083-6.354,9.083-11.884
			C110.372,71.159,106.635,66.271,101.282,64.805z M72.188,91.791c-3.235-7.778-7.334-11.884-15.11-15.102
			c7.778-3.219,11.876-7.321,15.11-15.101c3.235,7.778,7.333,11.883,15.11,15.101C79.521,79.909,75.423,84.013,72.188,91.791z"/>
	</g>
</g>
<g>
	<g>
		<path d="M293.41,122.318c-9.901-2.709-10.021-2.828-12.744-12.597c-1.371-4.939-5.919-8.388-11.061-8.388
			c-5.143,0-9.693,3.45-11.061,8.381c-2.723,9.776-2.842,9.894-12.74,12.605c-4.973,1.358-8.446,5.898-8.446,11.038
			c-0.001,5.133,3.467,9.672,8.444,11.04c9.899,2.707,10.018,2.824,12.74,12.597c1.372,4.939,5.921,8.388,11.063,8.388
			c5.141,0,9.689-3.45,11.059-8.381c2.726-9.779,2.845-9.897,12.759-12.608c4.962-1.368,8.426-5.905,8.426-11.037
			C301.85,128.216,298.379,123.677,293.41,122.318z M269.607,141.926c-2.088-3.87-4.704-6.49-8.57-8.571
			c3.866-2.081,6.482-4.7,8.569-8.569c2.088,3.869,4.703,6.488,8.571,8.57C274.31,135.438,271.694,138.056,269.607,141.926z"/>
	</g>
</g>
<g>
	<g>
		<path d="M455.341,197.197c-3.337-2.758-8.277-2.286-11.033,1.051c-2.758,3.335-2.286,8.276,1.05,11.033
			c32.391,26.759,50.968,66.144,50.968,108.054c0,77.313-63.038,140.213-140.52,140.213c-32.245,0-63.236-10.959-88.161-31.021
			c4.359-4.433,8.456-9.126,12.259-14.043c21.548,17.163,48.182,26.526,75.903,26.526c67.22,0,121.908-54.582,121.908-121.673
			s-54.688-121.672-121.908-121.672c-67.222,0-121.912,54.581-121.912,121.672c0,19.064,4.529,37.944,13.13,54.883
			c-3.56,5.849-7.661,11.324-12.262,16.371c-12.772-21.533-19.481-45.979-19.481-71.255c0-77.312,63.04-140.211,140.524-140.211
			c24.503,0,48.622,6.384,69.75,18.463c3.756,2.149,8.544,0.845,10.692-2.913c2.148-3.758,0.843-8.545-2.914-10.692
			c-23.493-13.432-50.302-20.53-77.529-20.53c-35.583,0-68.419,11.941-94.712,32.012l-37.171-55.003
			c-0.848-1.256-2.032-2.206-3.383-2.792c-9.164-27.015-34.756-46.065-64.283-46.065c-29.504,0-55.08,19.019-64.263,46
			c-1.412,0.579-2.648,1.557-3.525,2.857c0,0-61.835,91.664-62.047,92.222C9.743,255.478,0,285.292,0,317.335
			c0,85.956,70.07,155.886,156.196,155.886c37.891,0,72.664-13.547,99.74-36.027c28.02,23.28,63.216,36.027,99.87,36.027
			c86.126,0,156.194-69.93,156.194-155.886C512,270.734,491.349,226.945,455.341,197.197z M255.994,281.018
			c4.158,11.335,6.437,23.563,6.437,36.318c0,12.733-2.272,24.946-6.418,36.266c-4.233-11.574-6.446-23.872-6.446-36.266
			C249.568,304.584,251.838,292.352,255.994,281.018z M99.123,150.685h56.567c4.328,0,7.837-3.509,7.837-7.837
			c0-4.329-3.509-7.837-7.837-7.837h-46.562c8.459-17.709,26.551-29.735,47.129-29.735c20.576,0,38.667,12.026,47.127,29.735
			h-22.617c-4.328,0-7.837,3.508-7.837,7.837c0,4.328,3.509,7.837,7.837,7.837h32.502l21.642,32.023
			c-23.742-13.821-50.913-21.256-78.714-21.256c-28.702,0-55.616,7.774-78.752,21.312L99.123,150.685z M156.196,457.548
			c-77.483,0-140.522-62.9-140.522-140.213c0-77.312,63.039-140.211,140.522-140.211c32.115,0,63.301,11.008,88.208,31.063
			c-4.359,4.43-8.454,9.119-12.263,14.039c-20.847-16.616-47.253-26.564-75.945-26.564c-4.328,0-7.837,3.508-7.837,7.837
			c0,4.329,3.509,7.837,7.837,7.837c25.368,0,48.682,8.923,66.97,23.784c-14.92,23.881-23.557,52.058-23.557,82.216
			c0,29.293,8.12,57.576,23.516,82.249c-18.282,14.84-41.58,23.751-66.929,23.751c-58.579,0-106.237-47.551-106.237-106
			c0-24.257,8.028-47.101,23.214-66.061c14.751-18.415,35.426-31.564,58.219-37.024c4.209-1.008,6.804-5.238,5.795-9.447
			c-1.008-4.21-5.24-6.804-9.447-5.796c-26.161,6.267-49.884,21.349-66.801,42.468c-17.189,21.459-26.655,48.399-26.655,75.86
			c0,67.091,54.689,121.673,121.91,121.673c67.22,0,121.908-54.582,121.908-121.673c0-19.741-4.747-38.391-13.144-54.894
			c3.56-5.843,7.664-11.32,12.251-16.354c8.514,14.369,14.456,30.213,17.379,46.797c0.751,4.262,4.811,7.103,9.078,6.359
			c4.262-0.751,7.109-4.815,6.358-9.078c-3.457-19.62-10.705-38.31-21.155-55.079c18.283-14.84,41.584-23.75,66.935-23.75
			c58.578,0,106.235,47.551,106.235,105.999c0,58.45-47.657,106-106.235,106c-24.51,0-48.034-8.423-66.957-23.804
			c14.912-23.879,23.543-52.048,23.543-82.196c0-4.329-3.509-7.837-7.837-7.837c-4.328,0-7.837,3.508-7.837,7.837
			C296.719,394.649,233.68,457.548,156.196,457.548z"/>
	</g>
</g>
</svg>